<?xml version="1.0" encoding="UTF-8" standalone="no"?>
<!-- Created with Inkscape (http://www.inkscape.org/) -->

<svg
   xmlns:dc="http://purl.org/dc/elements/1.1/"
   xmlns:cc="http://creativecommons.org/ns#"
   xmlns:rdf="http://www.w3.org/1999/02/22-rdf-syntax-ns#"
   xmlns:svg="http://www.w3.org/2000/svg"
   xmlns="http://www.w3.org/2000/svg"
   xmlns:xlink="http://www.w3.org/1999/xlink"
   xmlns:sodipodi="http://sodipodi.sourceforge.net/DTD/sodipodi-0.dtd"
   xmlns:inkscape="http://www.inkscape.org/namespaces/inkscape"
   width="290"
   height="200"
   id="svg2"
   version="1.1"
   inkscape:version="0.48.2 r9819"
   inkscape:export-filename="C:\Users\imizus\Projects\CatEyeB\res\scale_texturemask.png"
   inkscape:export-xdpi="90"
   inkscape:export-ydpi="90"
   sodipodi:docname="scale_texturemask.svg"
   style="enable-background:new"
   enable-background="new">
  <defs
     id="defs4">
    <linearGradient
       id="linearGradient4185">
      <stop
         style="stop-color:#00ff00;stop-opacity:1;"
         offset="0"
         id="stop4187" />
      <stop
         style="stop-color:#00db00;stop-opacity:1;"
         offset="1"
         id="stop4189" />
    </linearGradient>
    <filter
       id="filter4155"
       inkscape:label="outer thin"
       x="0"
       y="0"
       width="3"
       height="3"
       color-interpolation-filters="sRGB">
      <feGaussianBlur
         stdDeviation="1"
         id="feGaussianBlur4157" />
    </filter>
    <filter
       color-interpolation-filters="sRGB"
       id="filter4155-4"
       inkscape:label="inner thick"
       x="0"
       y="0"
       width="3"
       height="3">
      <feGaussianBlur
         stdDeviation="3"
         id="feGaussianBlur4157-0" />
    </filter>
    <linearGradient
       inkscape:collect="always"
       xlink:href="#linearGradient4185"
       id="linearGradient4194"
       gradientUnits="userSpaceOnUse"
       x1="268.57144"
       y1="148.79076"
       x2="268.57144"
       y2="185.21933"
       gradientTransform="matrix(0.45445727,0,0,0.45445727,133.24409,792.11186)" />
    <filter
       inkscape:collect="always"
       id="filter3782">
      <feBlend
         inkscape:collect="always"
         mode="darken"
         in2="BackgroundImage"
         id="feBlend3784" />
    </filter>
    <linearGradient
       inkscape:collect="always"
       xlink:href="#linearGradient4185-9"
       id="linearGradient4194-0"
       gradientUnits="userSpaceOnUse"
       x1="268.57144"
       y1="148.79076"
       x2="268.57144"
       y2="185.21933"
       gradientTransform="matrix(0.45445727,0,0,0.45445727,133.25546,792.10573)" />
    <linearGradient
       id="linearGradient4185-9">
      <stop
         style="stop-color:#00ffff;stop-opacity:1;"
         offset="0"
         id="stop4187-0" />
      <stop
         style="stop-color:#00dbff;stop-opacity:1;"
         offset="1"
         id="stop4189-0" />
    </linearGradient>
    <filter
       color-interpolation-filters="sRGB"
       id="filter4155-4-6"
       inkscape:label="inner thick"
       x="0"
       y="0"
       width="3"
       height="3">
      <feGaussianBlur
         stdDeviation="3"
         id="feGaussianBlur4157-0-1" />
    </filter>
    <filter
       color-interpolation-filters="sRGB"
       id="filter3802"
       inkscape:label="inner thick"
       x="0"
       y="0"
       width="3"
       height="3">
      <feGaussianBlur
         stdDeviation="3"
         id="feGaussianBlur3804" />
    </filter>
    <filter
       id="filter4155-3"
       inkscape:label="outer thin"
       x="0"
       y="0"
       width="3"
       height="3"
       color-interpolation-filters="sRGB">
      <feGaussianBlur
         stdDeviation="1"
         id="feGaussianBlur4157-8" />
    </filter>
    <linearGradient
       inkscape:collect="always"
       xlink:href="#linearGradient4185-9-3"
       id="linearGradient4194-0-9"
       gradientUnits="userSpaceOnUse"
       x1="268.57144"
       y1="148.79076"
       x2="268.57144"
       y2="185.21933"
       gradientTransform="matrix(0.45445727,0,0,0.45445727,133.25546,792.10573)" />
    <linearGradient
       id="linearGradient4185-9-3">
      <stop
         style="stop-color:#00ff00;stop-opacity:1;"
         offset="0"
         id="stop4187-0-4" />
      <stop
         style="stop-color:#00db00;stop-opacity:1;"
         offset="1"
         id="stop4189-0-4" />
    </linearGradient>
    <linearGradient
       y2="185.21933"
       x2="268.57144"
       y1="148.79076"
       x1="268.57144"
       gradientTransform="matrix(0.45445727,0,0,0.45445727,133.25546,792.10573)"
       gradientUnits="userSpaceOnUse"
       id="linearGradient3949"
       xlink:href="#linearGradient4185-9"
       inkscape:collect="always" />
    <linearGradient
       inkscape:collect="always"
       xlink:href="#linearGradient4185-9-8"
       id="linearGradient4194-0-1"
       gradientUnits="userSpaceOnUse"
       x1="268.57144"
       y1="148.79076"
       x2="268.57144"
       y2="185.21933"
       gradientTransform="matrix(0.45445727,0,0,0.45445727,133.25546,772.10573)" />
    <linearGradient
       id="linearGradient4185-9-8">
      <stop
         style="stop-color:#00ff00;stop-opacity:1;"
         offset="0"
         id="stop4187-0-49" />
      <stop
         style="stop-color:#00db00;stop-opacity:1;"
         offset="1"
         id="stop4189-0-6" />
    </linearGradient>
    <linearGradient
       inkscape:collect="always"
       xlink:href="#linearGradient4185-9"
       id="linearGradient4181"
       gradientUnits="userSpaceOnUse"
       gradientTransform="matrix(0.45445727,0,0,0.45445727,133.25546,792.10573)"
       x1="268.57144"
       y1="148.79076"
       x2="268.57144"
       y2="185.21933" />
    <linearGradient
       inkscape:collect="always"
       xlink:href="#linearGradient4185-9"
       id="linearGradient4218"
       gradientUnits="userSpaceOnUse"
       gradientTransform="matrix(0.45445727,0,0,0.43827917,133.25546,794.09878)"
       x1="268.57144"
       y1="148.79076"
       x2="268.57144"
       y2="185.21933" />
  </defs>
  <sodipodi:namedview
     id="base"
     pagecolor="#ffffff"
     bordercolor="#666666"
     borderopacity="1.0"
     inkscape:pageopacity="0.0"
     inkscape:pageshadow="2"
     inkscape:zoom="8"
     inkscape:cx="278.35587"
     inkscape:cy="196.70579"
     inkscape:document-units="px"
     inkscape:current-layer="layer3"
     showgrid="false"
     showguides="true"
     inkscape:guide-bbox="true"
     inkscape:window-width="1189"
     inkscape:window-height="707"
     inkscape:window-x="-32000"
     inkscape:window-y="-32000"
     inkscape:window-maximized="0" />
  <metadata
     id="metadata7">
    <rdf:RDF>
      <cc:Work
         rdf:about="">
        <dc:format>image/svg+xml</dc:format>
        <dc:type
           rdf:resource="http://purl.org/dc/dcmitype/StillImage" />
        <dc:title></dc:title>
      </cc:Work>
    </rdf:RDF>
  </metadata>
  <g
     inkscape:groupmode="layer"
     id="layer3"
     inkscape:label="inner"
     style="display:inline">
    <rect
       style="fill:#00ff00;fill-opacity:1;stroke:#00ff00;stroke-width:0.8789131;stroke-miterlimit:4;stroke-opacity:1;stroke-dasharray:none;display:inline;enable-background:new"
       id="rect3025"
       width="35.747211"
       height="44.046402"
       x="238.10913"
       y="-2.3810577"
       ry="1.9079407" />
    <rect
       style="fill:#ffff00;fill-opacity:1;stroke:#ffffff;stroke-width:0.88219541;stroke-opacity:1;display:inline;enable-background:new"
       id="rect3017"
       width="225.55562"
       height="30.378641"
       x="3"
       y="1.2946014"
       ry="1.8783392" />
    <rect
       style="fill:#ffff00;fill-opacity:1;stroke:#ffffff;stroke-width:0.1423957;stroke-miterlimit:4;stroke-opacity:1;stroke-dasharray:none;display:inline;enable-background:new"
       id="rect3017-1"
       width="11.08581"
       height="16.044037"
       x="249.60002"
       y="7.0289154"
       ry="0.99201751" />
    <path
       style="fill:#000000;stroke:#000000;stroke-width:0.49101967;stroke-miterlimit:4;stroke-dasharray:none"
       d="m -5.883162,-4.263978 c -1.07901,0 -1.94564,0.835779 -1.94564,1.876377 l 0,41.225638 c 0,1.040599 0.86663,1.876378 1.94564,1.876378 l 238.547472,0 c 1.07901,0 1.94564,-0.835779 1.94564,-1.876378 l 0,-41.225637 c 0,-1.040599 -0.86663,-1.876378 -1.94564,-1.876378 z m 16.91434,15.093237 206.451412,0 c 1.07902,0 1.94565,0.849473 1.94565,1.890072 l 0,5.629152 c 0,1.040599 -0.86663,1.876378 -1.94565,1.876378 l -163.562012,0 0,2.615987 c -0.0431,0.953792 -0.76587,1.414005 -1.6048,1.369623 l -6.07837,0 c -0.7655,-0.0068 -1.34106,-0.616696 -1.29236,-1.397022 l -0.0142,-2.588588 -33.89967,0 c -1.07902,0 -1.95985,-0.835779 -1.95985,-1.876378 l 0,-5.629152 c 0,-1.040599 0.88083,-1.890072 1.95985,-1.890072 z"
       id="rect4140-1"
       inkscape:connector-curvature="0"
       sodipodi:nodetypes="ssssssssssssssccccccssss" />
    <path
       style="fill:#000000;fill-opacity:1;stroke:none"
       d="m 250.11062,5.854539 c -1.07901,0 -1.95985,0.835779 -1.95985,1.876388 l 0,15.654778 c 0,1.040599 0.88084,1.876388 1.95985,1.876388 l 10.05487,0 c 1.07901,0 1.94564,-0.835789 1.94564,-1.876388 l 0,-15.654778 c 0,-1.040609 -0.86663,-1.876388 -1.94564,-1.876388 l -10.05487,0 z m 3.08179,2.821424 4.04751,0 c 1.07901,0 1.95985,0.835779 1.95985,1.876377 l 0,10.176295 c 0,1.040608 -0.88084,1.876388 -1.95985,1.876388 l -4.04751,0 c -1.07901,0 -1.94565,-0.83578 -1.94565,-1.876388 l 0,-10.176295 c 0,-1.040598 0.86664,-1.876377 1.94565,-1.876377 z"
       id="rect4120-9-7"
       inkscape:connector-curvature="0" />
  </g>
  <g
     inkscape:label="bump"
     inkscape:groupmode="layer"
     id="layer1"
     style="display:inline"
     transform="translate(0,-852.36218)">
    <rect
       style="fill:none;stroke:#ff0000;display:inline;filter:url(#filter4155-4-6);enable-background:new"
       id="rect4196"
       width="18.571428"
       height="33.57143"
       x="219.28571"
       y="151.6479"
       ry="4.2857141"
       transform="matrix(0.45445727,0,0,0.43827917,151.43375,794.09878)" />
    <rect
       style="fill:none;stroke:#ff0000;display:inline;filter:url(#filter4155-3);enable-background:new"
       id="rect4120"
       width="30.714481"
       height="44.285751"
       x="212.85712"
       y="146.29077"
       ry="4.2857141"
       transform="matrix(0.45445727,0,0,0.43827917,151.43375,794.09878)" />
    <path
       style="fill:url(#linearGradient4218);fill-opacity:1;stroke:none;display:inline;enable-background:new"
       d="m 250.12199,858.21081 c -1.07901,0 -1.95985,0.83578 -1.95985,1.87638 l 0,15.65478 c 0,1.0406 0.88084,1.87639 1.95985,1.87639 l 10.05487,0 c 1.07901,0 1.94564,-0.83579 1.94564,-1.87639 l 0,-15.65478 c 0,-1.0406 -0.86663,-1.87638 -1.94564,-1.87638 l -10.05487,0 z m 3.08179,2.82142 4.04751,0 c 1.07901,0 1.95985,0.83578 1.95985,1.87638 l 0,10.17629 c 0,1.04061 -0.88084,1.87639 -1.95985,1.87639 l -4.04751,0 c -1.07901,0 -1.94565,-0.83578 -1.94565,-1.87639 l 0,-10.17629 c 0,-1.0406 0.86664,-1.87638 1.94565,-1.87638 z"
       id="rect4120-9-6"
       inkscape:connector-curvature="0" />
    <path
       style="fill:none;stroke:#ff0000;stroke-width:1px;stroke-linecap:butt;stroke-linejoin:miter;stroke-opacity:1;display:inline;filter:url(#filter4155-4-6);enable-background:new"
       d="m 87.142854,58.076469 454.285716,0 c 2.37429,0 4.28572,1.911429 4.28572,4.285715 l 0,12.857143 c 0,2.374286 -1.91143,4.285714 -4.28572,4.285714 l -359.90569,0 0,5.951751 c -0.0948,2.176234 -1.68952,3.240906 -3.53553,3.139622 l -13.35712,0.0089 c -1.68443,-0.01504 -2.95723,-1.431656 -2.85006,-3.212088 l -0.0163,-5.888174 -74.621136,0 c -2.374286,0 -4.285714,-1.911428 -4.285714,-4.285714 l 0,-12.857143 c 0,-2.374286 1.911428,-4.285715 4.285714,-4.285715 z"
       id="rect4099"
       inkscape:connector-curvature="0"
       sodipodi:nodetypes="cssssccccccssssc"
       transform="matrix(0.45445727,0,0,0.43827917,-28.566247,837.73794)" />
    <path
       style="fill:url(#linearGradient4181);fill-opacity:1;stroke:#000000;stroke-width:0.80000001;stroke-miterlimit:4;stroke-opacity:1;stroke-dasharray:none;display:inline;filter:url(#filter3782);enable-background:new"
       d="m 250.12199,858.58431 c -1.07901,0 -1.95985,0.86663 -1.95985,1.94565 l 0,16.23264 c 0,1.07901 0.88084,1.94565 1.95985,1.94565 l 10.05487,0 c 1.07901,0 1.94564,-0.86664 1.94564,-1.94565 l 0,-16.23264 c 0,-1.07902 -0.86663,-1.94565 -1.94564,-1.94565 l -10.05487,0 z m 3.08179,2.92557 4.04751,0 c 1.07901,0 1.95985,0.86663 1.95985,1.94564 l 0,10.55193 c 0,1.07902 -0.88084,1.94565 -1.95985,1.94565 l -4.04751,0 c -1.07901,0 -1.94565,-0.86663 -1.94565,-1.94565 l 0,-10.55193 c 0,-1.07901 0.86664,-1.94564 1.94565,-1.94564 z"
       id="rect4120-9"
       inkscape:connector-curvature="0"
       transform="matrix(1,0,0,0.96440128,0,30.191001)" />
    <path
       style="fill:#00ff00;stroke:#000000;stroke-width:0.78563148;stroke-miterlimit:4;stroke-dasharray:none;display:inline;enable-background:new"
       d="m -5.871787,848.09229 c -1.07901,0 -1.94564,0.83578 -1.94564,1.87638 l 0,41.22564 c 0,1.04059 0.86663,1.87637 1.94564,1.87637 l 238.547467,0 c 1.07901,0 1.94564,-0.83578 1.94564,-1.87637 l 0,-41.22564 c 0,-1.0406 -0.86663,-1.87638 -1.94564,-1.87638 z m 16.91434,15.09324 206.451407,0 c 1.07902,0 1.94565,0.84947 1.94565,1.89007 l 0,5.62915 c 0,1.0406 -0.86663,1.87638 -1.94565,1.87638 l -163.562007,0 0,2.61599 c -0.0431,0.95379 -0.76587,1.414 -1.6048,1.36962 l -6.07837,0 c -0.7655,-0.007 -1.34106,-0.6167 -1.29236,-1.39702 l -0.0142,-2.58859 -33.89967,0 c -1.07902,0 -1.95985,-0.83578 -1.95985,-1.87638 l 0,-5.62915 c 0,-1.0406 0.88083,-1.89007 1.95985,-1.89007 z"
       id="rect4140"
       inkscape:connector-curvature="0"
       sodipodi:nodetypes="ssssssssssssssccccccssss" />
  </g>
</svg>
