<?xml version="1.0" encoding="UTF-8" standalone="no"?>
<!-- Created with Inkscape (http://www.inkscape.org/) -->

<svg
   xmlns:dc="http://purl.org/dc/elements/1.1/"
   xmlns:cc="http://creativecommons.org/ns#"
   xmlns:rdf="http://www.w3.org/1999/02/22-rdf-syntax-ns#"
   xmlns:svg="http://www.w3.org/2000/svg"
   xmlns="http://www.w3.org/2000/svg"
   xmlns:sodipodi="http://sodipodi.sourceforge.net/DTD/sodipodi-0.dtd"
   xmlns:inkscape="http://www.inkscape.org/namespaces/inkscape"
   width="290"
   height="200"
   id="svg2"
   version="1.1"
   inkscape:version="0.48.2 r9819"
   inkscape:export-filename="C:\Users\imizus\Projects\CatEyeB\scale_mask.png"
   inkscape:export-xdpi="90"
   inkscape:export-ydpi="90"
   sodipodi:docname="scale_mask.svg"
   style="enable-background:new">
  <defs
     id="defs4">
    <linearGradient
       id="linearGradient4185">
      <stop
         style="stop-color:#edefef;stop-opacity:1;"
         offset="0"
         id="stop4187" />
      <stop
         style="stop-color:#d8dbdb;stop-opacity:1;"
         offset="1"
         id="stop4189" />
    </linearGradient>
    <filter
       id="filter4155"
       inkscape:label="outer thin"
       x="0"
       y="0"
       width="3"
       height="3"
       color-interpolation-filters="sRGB">
      <feGaussianBlur
         stdDeviation="1"
         id="feGaussianBlur4157" />
    </filter>
    <filter
       color-interpolation-filters="sRGB"
       id="filter4155-4"
       inkscape:label="inner thick"
       x="0"
       y="0"
       width="3"
       height="3">
      <feGaussianBlur
         stdDeviation="3"
         id="feGaussianBlur4157-0" />
    </filter>
  </defs>
  <sodipodi:namedview
     id="base"
     pagecolor="#ffffff"
     bordercolor="#666666"
     borderopacity="1.0"
     inkscape:pageopacity="0.0"
     inkscape:pageshadow="2"
     inkscape:zoom="2"
     inkscape:cx="164.91197"
     inkscape:cy="153.75393"
     inkscape:document-units="px"
     inkscape:current-layer="layer1"
     showgrid="false"
     showguides="true"
     inkscape:guide-bbox="true"
     inkscape:window-width="1189"
     inkscape:window-height="707"
     inkscape:window-x="331"
     inkscape:window-y="286"
     inkscape:window-maximized="0" />
  <metadata
     id="metadata7">
    <rdf:RDF>
      <cc:Work
         rdf:about="">
        <dc:format>image/svg+xml</dc:format>
        <dc:type
           rdf:resource="http://purl.org/dc/dcmitype/StillImage" />
        <dc:title></dc:title>
      </cc:Work>
    </rdf:RDF>
  </metadata>
  <g
     inkscape:groupmode="layer"
     id="layer2"
     inkscape:label="Layer"
     style="display:inline"
     transform="translate(0,-852.36218)">
    <rect
       style="fill:#000000;fill-opacity:1;stroke:#ffffff;stroke-width:0.89833003;stroke-opacity:1"
       id="rect3017"
       width="225.55562"
       height="31.5"
       x="3"
       y="853.86218"
       ry="1.9476739" />
  </g>
  <g
     inkscape:label="Layer 1"
     inkscape:groupmode="layer"
     id="layer1"
     style="display:inline"
     transform="translate(0,-852.36218)">
    <rect
       style="fill:none;stroke:#000000;filter:url(#filter4155)"
       id="rect4120"
       width="30.714481"
       height="44.285751"
       x="212.85712"
       y="146.29077"
       ry="4.2857141"
       transform="matrix(0.45445727,0,0,0.45445727,151.42238,792.11186)" />
    <rect
       style="fill:none;stroke:#000000;filter:url(#filter4155-4)"
       id="rect4196"
       width="18.571428"
       height="33.57143"
       x="219.28571"
       y="151.6479"
       ry="4.2857141"
       transform="matrix(0.45445727,0,0,0.45445727,151.42238,792.11186)" />
    <path
       style="fill:#ffffff;stroke:#000000;stroke-width:0.7;stroke-miterlimit:4;stroke-dasharray:none"
       d="m -5.883162,848.09842 c -1.07901,0 -1.94564,0.86663 -1.94564,1.94564 l 0,42.74739 c 0,1.07901 0.86663,1.94564 1.94564,1.94564 l 238.547472,0 c 1.07901,0 1.94564,-0.86663 1.94564,-1.94564 l 0,-42.74739 c 0,-1.07901 -0.86663,-1.94564 -1.94564,-1.94564 z m 16.91434,15.65037 206.451412,0 c 1.07902,0 1.94565,0.88083 1.94565,1.95984 l 0,5.83694 c 0,1.07901 -0.86663,1.94564 -1.94565,1.94564 l -163.562012,0 0,2.71255 c -0.0431,0.989 -0.76587,1.4662 -1.6048,1.42018 l -6.07837,0 c -0.7655,-0.007 -1.34106,-0.63946 -1.29236,-1.44859 l -0.0142,-2.68414 -33.89967,0 c -1.07902,0 -1.95985,-0.86663 -1.95985,-1.94564 l 0,-5.83694 c 0,-1.07901 0.88083,-1.95984 1.95985,-1.95984 z"
       id="rect4140"
       inkscape:connector-curvature="0"
       sodipodi:nodetypes="ssssssssssssssccccccssss" />
    <path
       style="fill:#000000;fill-opacity:1;stroke:#000000;stroke-width:0.7;stroke-miterlimit:4;stroke-dasharray:none"
       d="m 250.11062,858.59044 c -1.07901,0 -1.95985,0.86663 -1.95985,1.94565 l 0,16.23264 c 0,1.07901 0.88084,1.94565 1.95985,1.94565 l 10.05487,0 c 1.07901,0 1.94564,-0.86664 1.94564,-1.94565 l 0,-16.23264 c 0,-1.07902 -0.86663,-1.94565 -1.94564,-1.94565 l -10.05487,0 z m 3.08179,2.92557 4.04751,0 c 1.07901,0 1.95985,0.86663 1.95985,1.94564 l 0,10.55193 c 0,1.07902 -0.88084,1.94565 -1.95985,1.94565 l -4.04751,0 c -1.07901,0 -1.94565,-0.86663 -1.94565,-1.94565 l 0,-10.55193 c 0,-1.07901 0.86664,-1.94564 1.94565,-1.94564 z"
       id="rect4120-9"
       inkscape:connector-curvature="0" />
  </g>
</svg>
