<?xml version="1.0" encoding="UTF-8" standalone="no"?>
<!-- Created with Inkscape (http://www.inkscape.org/) -->

<svg
   xmlns:dc="http://purl.org/dc/elements/1.1/"
   xmlns:cc="http://creativecommons.org/ns#"
   xmlns:rdf="http://www.w3.org/1999/02/22-rdf-syntax-ns#"
   xmlns:svg="http://www.w3.org/2000/svg"
   xmlns="http://www.w3.org/2000/svg"
   xmlns:xlink="http://www.w3.org/1999/xlink"
   xmlns:sodipodi="http://sodipodi.sourceforge.net/DTD/sodipodi-0.dtd"
   xmlns:inkscape="http://www.inkscape.org/namespaces/inkscape"
   width="290"
   height="200"
   id="svg2"
   version="1.1"
   inkscape:version="0.48.2 r9819"
   inkscape:export-filename="C:\Users\imizus\Projects\CatEyeB\scale.png"
   inkscape:export-xdpi="90"
   inkscape:export-ydpi="90"
   sodipodi:docname="scale.svg"
   style="enable-background:new">
  <defs
     id="defs4">
    <linearGradient
       id="linearGradient4185">
      <stop
         style="stop-color:#edefef;stop-opacity:1;"
         offset="0"
         id="stop4187" />
      <stop
         style="stop-color:#d8dbdb;stop-opacity:1;"
         offset="1"
         id="stop4189" />
    </linearGradient>
    <filter
       id="filter4155"
       inkscape:label="outer thin"
       x="0"
       y="0"
       width="3"
       height="3"
       color-interpolation-filters="sRGB">
      <feGaussianBlur
         stdDeviation="1"
         id="feGaussianBlur4157" />
    </filter>
    <filter
       color-interpolation-filters="sRGB"
       id="filter4155-4"
       inkscape:label="inner thick"
       x="0"
       y="0"
       width="3"
       height="3">
      <feGaussianBlur
         stdDeviation="3"
         id="feGaussianBlur4157-0" />
    </filter>
    <linearGradient
       inkscape:collect="always"
       xlink:href="#linearGradient4185"
       id="linearGradient4194"
       gradientUnits="userSpaceOnUse"
       x1="268.57144"
       y1="148.79076"
       x2="268.57144"
       y2="185.21933"
       gradientTransform="matrix(0.45445727,0,0,0.45445727,133.24409,792.11186)" />
  </defs>
  <sodipodi:namedview
     id="base"
     pagecolor="#ffffff"
     bordercolor="#666666"
     borderopacity="1.0"
     inkscape:pageopacity="0.0"
     inkscape:pageshadow="2"
     inkscape:zoom="2"
     inkscape:cx="210.78883"
     inkscape:cy="113.75393"
     inkscape:document-units="px"
     inkscape:current-layer="layer1"
     showgrid="false"
     showguides="true"
     inkscape:guide-bbox="true"
     inkscape:window-width="1189"
     inkscape:window-height="707"
     inkscape:window-x="253"
     inkscape:window-y="218"
     inkscape:window-maximized="0" />
  <metadata
     id="metadata7">
    <rdf:RDF>
      <cc:Work
         rdf:about="">
        <dc:format>image/svg+xml</dc:format>
        <dc:type
           rdf:resource="http://purl.org/dc/dcmitype/StillImage" />
        <dc:title />
      </cc:Work>
    </rdf:RDF>
  </metadata>
  <g
     inkscape:groupmode="layer"
     id="layer2"
     inkscape:label="Layer"
     style="display:inline"
     transform="translate(0,-852.36218)">
    <rect
       style="fill:#ffffff;fill-opacity:1;stroke:#ffffff;stroke-opacity:1"
       id="rect3017"
       width="279.5"
       height="31.5"
       x="3"
       y="853.86218"
       ry="1.9476739" />
  </g>
  <g
     inkscape:label="Layer 1"
     inkscape:groupmode="layer"
     id="layer1"
     style="display:inline"
     transform="translate(0,-852.36218)">
    <rect
       style="fill:#000000;fill-opacity:1;stroke:none;display:inline;enable-background:new"
       id="rect4337-2"
       width="28"
       height="8.5"
       x="241.5"
       y="850.61218"
       ry="1.4395851" />
    <rect
       style="fill:#000000;fill-opacity:1;stroke:none"
       id="rect4337"
       width="28"
       height="8.5"
       x="241"
       y="876.86218"
       ry="1.4395851" />
    <rect
       style="fill:#000000;fill-opacity:1;stroke:none;display:inline;enable-background:new"
       id="rect4317-8"
       width="7.5"
       height="26"
       x="261.25"
       y="855.86218"
       ry="1.9476739" />
    <rect
       style="fill:none;stroke:#000000;filter:url(#filter4155)"
       id="rect4120"
       width="30.714481"
       height="44.285751"
       x="212.85712"
       y="146.29077"
       ry="4.2857141"
       transform="matrix(0.45445727,0,0,0.45445727,151.42238,792.11186)" />
    <rect
       style="fill:none;stroke:#000000;filter:url(#filter4155-4)"
       id="rect4196"
       width="18.571428"
       height="33.57143"
       x="219.28571"
       y="151.6479"
       ry="4.2857141"
       transform="matrix(0.45445727,0,0,0.45445727,151.42238,792.11186)" />
    <path
       style="fill:none;stroke:#000000;stroke-width:1px;stroke-linecap:butt;stroke-linejoin:miter;stroke-opacity:1;filter:url(#filter4155-4)"
       d="m 87.142854,58.076469 454.285716,0 c 2.37429,0 4.28572,1.911429 4.28572,4.285715 l 0,12.857143 c 0,2.374286 -1.91143,4.285714 -4.28572,4.285714 l -359.90569,0 0,5.951751 c -0.0948,2.176234 -1.68952,3.240906 -3.53553,3.139622 l -13.35712,0.0089 c -1.68443,-0.01504 -2.95723,-1.431656 -2.85006,-3.212088 l -0.0163,-5.888174 -74.621136,0 c -2.374286,0 -4.285714,-1.911428 -4.285714,-4.285714 l 0,-12.857143 c 0,-2.374286 1.911428,-4.285715 4.285714,-4.285715 z"
       id="rect4099"
       inkscape:connector-curvature="0"
       sodipodi:nodetypes="cssssccccccssssc"
       transform="matrix(0.45445727,0,0,0.45445727,-28.577622,837.36186)" />
    <path
       style="fill:#000000;stroke:#000000;stroke-width:0.45445728000000002"
       d="m -5.883162,848.09842 c -1.07901,0 -1.94564,0.86663 -1.94564,1.94564 l 0,42.74739 c 0,1.07901 0.86663,1.94564 1.94564,1.94564 l 238.547472,0 c 1.07901,0 1.94564,-0.86663 1.94564,-1.94564 l 0,-42.74739 c 0,-1.07901 -0.86663,-1.94564 -1.94564,-1.94564 z m 16.91434,15.65037 206.451412,0 c 1.07902,0 1.94565,0.88083 1.94565,1.95984 l 0,5.83694 c 0,1.07901 -0.86663,1.94564 -1.94565,1.94564 l -163.562012,0 0,2.71255 c -0.0431,0.989 -0.76587,1.4662 -1.6048,1.42018 l -6.07837,0 c -0.7655,-0.007 -1.34106,-0.63946 -1.29236,-1.44859 l -0.0142,-2.68414 -33.89967,0 c -1.07902,0 -1.95985,-0.86663 -1.95985,-1.94564 l 0,-5.83694 c 0,-1.07901 0.88083,-1.95984 1.95985,-1.95984 z"
       id="rect4140"
       inkscape:connector-curvature="0"
       sodipodi:nodetypes="ssssssssssssssccccccssss" />
    <rect
       style="fill:#000000;fill-opacity:1;stroke:none;stroke-width:1;stroke-miterlimit:4;stroke-opacity:1;stroke-dasharray:none"
       id="rect4317"
       width="7.5"
       height="26"
       x="242.5"
       y="855.36218"
       ry="1.9476739" />
    <path
       style="fill:url(#linearGradient4194);fill-opacity:1;stroke:#000000;stroke-width:0.45445728"
       d="m 250.11062,858.59044 c -1.07901,0 -1.95985,0.86663 -1.95985,1.94565 l 0,16.23264 c 0,1.07901 0.88084,1.94565 1.95985,1.94565 l 10.05487,0 c 1.07901,0 1.94564,-0.86664 1.94564,-1.94565 l 0,-16.23264 c 0,-1.07902 -0.86663,-1.94565 -1.94564,-1.94565 l -10.05487,0 z m 3.08179,2.92557 4.04751,0 c 1.07901,0 1.95985,0.86663 1.95985,1.94564 l 0,10.55193 c 0,1.07902 -0.88084,1.94565 -1.95985,1.94565 l -4.04751,0 c -1.07901,0 -1.94565,-0.86663 -1.94565,-1.94565 l 0,-10.55193 c 0,-1.07901 0.86664,-1.94564 1.94565,-1.94564 z"
       id="rect4120-9"
       inkscape:connector-curvature="0" />
  </g>
</svg>
